<svg width="24" height="25" viewBox="0 0 24 25" fill="none" xmlns="http://www.w3.org/2000/svg">
<path d="M16.9688 18.875V20.75C16.9688 22.8178 15.2866 24.5 13.2188 24.5H3.79688C1.72906 24.5 0.046875 22.8178 0.046875 20.75V4.25C0.046875 2.18219 1.72906 0.5 3.79688 0.5H13.2188C15.2866 0.5 16.9688 2.18219 16.9688 4.25V6.125C16.9688 6.64282 16.5491 7.0625 16.0312 7.0625C15.5134 7.0625 15.0938 6.64282 15.0938 6.125V4.25C15.0938 3.21619 14.2526 2.375 13.2188 2.375H3.79688C2.76306 2.375 1.92188 3.21619 1.92188 4.25V20.75C1.92188 21.7838 2.76306 22.625 3.79688 22.625H13.2188C14.2526 22.625 15.0938 21.7838 15.0938 20.75V18.875C15.0938 18.3572 15.5134 17.9375 16.0312 17.9375C16.5491 17.9375 16.9688 18.3572 16.9688 18.875ZM23.3604 10.8896L21.2611 8.79028C20.8949 8.42407 20.3013 8.42407 19.9352 8.79028C19.569 9.15631 19.569 9.74994 19.9352 10.116L21.4285 11.6094H10.1719C9.65405 11.6094 9.23438 12.0291 9.23438 12.5469C9.23438 13.0647 9.65405 13.4844 10.1719 13.4844H21.4285L19.9352 14.9778C19.569 15.3438 19.569 15.9374 19.9352 16.3035C20.1183 16.4866 20.3582 16.5781 20.5981 16.5781C20.8381 16.5781 21.078 16.4866 21.2611 16.3035L23.3604 14.2042C24.2743 13.2903 24.2743 11.8035 23.3604 10.8896Z" fill="white"/>
</svg>
