<svg width="21" height="20" viewBox="0 0 21 20" fill="none" xmlns="http://www.w3.org/2000/svg">
<path fill-rule="evenodd" clip-rule="evenodd" d="M6.17773 18.2736L8.77802 19.0474V18.0355L8.99028 17.7974H10.4761V18.9878V19.8212H8.88415L6.92066 18.8688L6.17773 18.2736Z" fill="#CDBDB2"/>
<path fill-rule="evenodd" clip-rule="evenodd" d="M14.6689 18.2736L12.1218 19.0474V18.0355L11.9095 17.7974H10.4237V18.9878V19.8212H12.0156L13.979 18.8688L14.6689 18.2736Z" fill="#CDBDB2"/>
<path fill-rule="evenodd" clip-rule="evenodd" d="M8.99107 16.0725L8.77881 18.0367L9.04409 17.7986H11.8035L12.1219 18.0367L11.9097 16.0725L11.4851 15.7748L9.36249 15.8344L8.99107 16.0725Z" fill="#393939"/>
<path fill-rule="evenodd" clip-rule="evenodd" d="M7.55811 2.79736L8.83169 6.1307L9.41546 15.8331H11.485L12.1218 6.1307L13.2892 2.79736H7.55811Z" fill="#F89C35"/>
<path fill-rule="evenodd" clip-rule="evenodd" d="M1.98585 10.1191L0.5 14.9405L4.21462 14.7024H6.60254V12.6191L6.49641 8.33337L5.96575 8.80956L1.98585 10.1191Z" fill="#F89D35"/>
<path fill-rule="evenodd" clip-rule="evenodd" d="M4.79785 10.6554L9.14926 10.7744L8.67172 13.2744L6.6021 12.6792L4.79785 10.6554Z" fill="#D87C30"/>
<path fill-rule="evenodd" clip-rule="evenodd" d="M4.79785 10.714L6.6021 12.6188V14.5235L4.79785 10.714Z" fill="#EA8D3A"/>
<path fill-rule="evenodd" clip-rule="evenodd" d="M6.60254 12.678L8.72518 13.2732L9.41509 15.8328L8.93745 16.1304L6.60254 14.5827V12.678Z" fill="#F89D35"/>
<path fill-rule="evenodd" clip-rule="evenodd" d="M6.60226 14.5834L6.17773 18.2738L8.99028 16.0715L6.60226 14.5834Z" fill="#EB8F35"/>
<path fill-rule="evenodd" clip-rule="evenodd" d="M9.1498 10.7748L9.41517 15.8344L8.61914 13.245L9.1498 10.7748Z" fill="#EA8E3A"/>
<path fill-rule="evenodd" clip-rule="evenodd" d="M4.16211 14.643L6.60315 14.5834L6.17862 18.2738L4.16211 14.643Z" fill="#D87C30"/>
<path fill-rule="evenodd" clip-rule="evenodd" d="M1.66745 19.8801L6.17802 18.2729L4.16151 14.642L0.5 14.9395L1.66745 19.8801Z" fill="#EB8F35"/>
<path fill-rule="evenodd" clip-rule="evenodd" d="M8.83087 6.13062L6.54908 8.27347L4.79785 10.6544L9.14926 10.833L8.83087 6.13062Z" fill="#E8821E"/>
<path fill-rule="evenodd" clip-rule="evenodd" d="M6.17773 18.2744L8.99028 16.072L8.77802 17.9768V19.0482L6.86764 18.6315L6.17773 18.2744Z" fill="#DFCEC3"/>
<path fill-rule="evenodd" clip-rule="evenodd" d="M14.6689 18.2744L11.9095 16.072L12.1218 17.9768V19.0482L14.0322 18.6315L14.6689 18.2744Z" fill="#DFCEC3"/>
<path fill-rule="evenodd" clip-rule="evenodd" d="M7.98263 11.8446L8.56641 13.2137L6.49678 12.6185L7.98263 11.8446Z" fill="#393939"/>
<path fill-rule="evenodd" clip-rule="evenodd" d="M1.61426 0L8.83124 6.1309L7.61077 2.79756L1.61426 0Z" fill="#E88F35"/>
<path fill-rule="evenodd" clip-rule="evenodd" d="M1.61388 0L0.658691 3.27381L1.18935 6.84524L0.81789 7.08333L1.34855 7.61905L0.924022 8.03572L1.50775 8.63095L1.13629 8.9881L1.98534 10.1786L5.9653 8.80953C7.91105 7.06349 8.86624 6.17064 8.83086 6.13095C8.79548 6.09127 6.38982 4.04762 1.61388 0Z" fill="#8E5A30"/>
<path fill-rule="evenodd" clip-rule="evenodd" d="M18.8603 10.1191L20.3462 14.9405L16.6316 14.7024H14.2436V12.6191L14.3498 8.33337L14.8804 8.80956L18.8603 10.1191Z" fill="#F89D35"/>
<path fill-rule="evenodd" clip-rule="evenodd" d="M16.0479 10.6554L11.6964 10.7744L12.174 13.2744L14.2436 12.6792L16.0479 10.6554Z" fill="#D87C30"/>
<path fill-rule="evenodd" clip-rule="evenodd" d="M16.0479 10.714L14.2436 12.6188V14.5235L16.0479 10.714Z" fill="#EA8D3A"/>
<path fill-rule="evenodd" clip-rule="evenodd" d="M14.2441 12.678L12.1215 13.2732L11.4316 15.8328L11.9092 16.1304L14.2441 14.5827V12.678Z" fill="#F89D35"/>
<path fill-rule="evenodd" clip-rule="evenodd" d="M14.2444 14.5834L14.6689 18.2738L11.9095 16.131L14.2444 14.5834Z" fill="#EB8F35"/>
<path fill-rule="evenodd" clip-rule="evenodd" d="M11.6969 10.7748L11.4315 15.8344L12.2275 13.245L11.6969 10.7748Z" fill="#EA8E3A"/>
<path fill-rule="evenodd" clip-rule="evenodd" d="M16.6841 14.643L14.243 14.5834L14.6676 18.2738L16.6841 14.643Z" fill="#D87C30"/>
<path fill-rule="evenodd" clip-rule="evenodd" d="M19.1787 19.8801L14.6682 18.2729L16.6847 14.642L20.3462 14.9395L19.1787 19.8801Z" fill="#EB8F35"/>
<path fill-rule="evenodd" clip-rule="evenodd" d="M12.0148 6.13062L14.2966 8.27347L16.0479 10.6544L11.6964 10.833L12.0148 6.13062Z" fill="#E8821E"/>
<path fill-rule="evenodd" clip-rule="evenodd" d="M12.8636 11.8446L12.2798 13.2137L14.3494 12.6185L12.8636 11.8446Z" fill="#393939"/>
<path fill-rule="evenodd" clip-rule="evenodd" d="M19.2314 0L12.0145 6.1309L13.2349 2.79756L19.2314 0Z" fill="#E88F35"/>
<path fill-rule="evenodd" clip-rule="evenodd" d="M19.2323 0L20.1875 3.27381L19.6568 6.84524L20.0283 7.08333L19.4976 7.61905L19.9222 8.03572L19.3384 8.63095L19.7099 8.9881L18.8608 10.1786L14.8809 8.80953C12.9351 7.06349 11.98 6.17064 12.0153 6.13095C12.0507 6.09127 14.4564 4.04762 19.2323 0Z" fill="#8E5A30"/>
</svg>
