<svg width="410" height="304" viewBox="0 0 410 304" fill="none" xmlns="http://www.w3.org/2000/svg">
<g clip-path="url(#clip0_120_132)">
<g opacity="0.7">
<mask id="mask0_120_132" style="mask-type:alpha" maskUnits="userSpaceOnUse" x="25" y="162" width="189" height="111">
<path d="M28.2501 163.537L27.3729 164.035C24.1265 165.882 24.5107 169.146 28.2437 171.319L197.853 270.204C201.58 272.376 207.24 272.638 210.487 270.791L211.364 270.293C214.61 268.447 214.226 265.182 210.493 263.009L40.8833 164.125C37.1503 161.952 31.4964 161.69 28.2501 163.537Z" fill="url(#paint0_linear_120_132)"/>
</mask>
<g mask="url(#mask0_120_132)">
<path opacity="0.66" d="M28.2501 163.537L27.3729 164.035C24.1265 165.882 24.5107 169.146 28.2437 171.319L197.853 270.204C201.58 272.376 207.24 272.638 210.487 270.791L211.364 270.293C214.61 268.447 214.226 265.182 210.493 263.009L40.8833 164.125C37.1503 161.952 31.4964 161.69 28.2501 163.537Z" fill="url(#paint1_linear_120_132)"/>
</g>
<mask id="mask1_120_132" style="mask-type:alpha" maskUnits="userSpaceOnUse" x="92" y="174" width="102" height="59">
<path d="M95.7956 175.606L94.9184 176.104C91.6721 177.951 92.0563 181.216 95.7892 183.388L177.71 231.153C181.436 233.325 187.096 233.587 190.343 231.741L191.22 231.243C194.466 229.396 194.082 226.131 190.349 223.959L108.429 176.194C104.702 174.021 99.042 173.759 95.7956 175.606Z" fill="url(#paint2_linear_120_132)"/>
</mask>
<g mask="url(#mask1_120_132)">
<path opacity="0.66" d="M95.7956 175.606L94.9184 176.104C91.6721 177.951 92.0563 181.216 95.7892 183.388L177.71 231.153C181.436 233.325 187.096 233.587 190.343 231.741L191.22 231.243C194.466 229.396 194.082 226.131 190.349 223.959L108.429 176.194C104.702 174.021 99.042 173.759 95.7956 175.606Z" fill="url(#paint3_linear_120_132)"/>
</g>
<mask id="mask2_120_132" style="mask-type:alpha" maskUnits="userSpaceOnUse" x="136" y="172" width="174" height="102">
<path d="M139.118 173.555L138.241 174.053C134.995 175.9 135.379 179.165 139.112 181.337L293.412 271.207C297.139 273.379 302.799 273.641 306.045 271.795L306.922 271.296C310.169 269.45 309.785 266.185 306.052 264.013L151.752 174.143C148.019 171.97 142.365 171.702 139.118 173.555Z" fill="url(#paint4_linear_120_132)"/>
</mask>
<g mask="url(#mask2_120_132)">
<path opacity="0.66" d="M139.118 173.555L138.241 174.053C134.995 175.9 135.379 179.165 139.112 181.337L293.412 271.207C297.139 273.379 302.799 273.641 306.045 271.795L306.922 271.296C310.169 269.45 309.785 266.185 306.052 264.013L151.752 174.143C148.019 171.97 142.365 171.702 139.118 173.555Z" fill="url(#paint5_linear_120_132)"/>
</g>
<mask id="mask3_120_132" style="mask-type:alpha" maskUnits="userSpaceOnUse" x="46" y="93" width="308" height="180">
<path d="M49.9179 94.24L49.0407 94.7384C45.7944 96.5848 46.1786 99.8497 49.9115 102.022L337.753 270.21C341.48 272.382 347.14 272.644 350.386 270.798L351.263 270.3C354.51 268.453 354.126 265.188 350.393 263.016L62.5511 94.8278C58.8246 92.6555 53.1707 92.3872 49.9179 94.24Z" fill="url(#paint6_linear_120_132)"/>
</mask>
<g mask="url(#mask3_120_132)">
<path opacity="0.66" d="M49.9179 94.24L49.0407 94.7384C45.7944 96.5848 46.1786 99.8497 49.9115 102.022L337.753 270.21C341.48 272.382 347.14 272.644 350.386 270.798L351.263 270.3C354.51 268.453 354.126 265.188 350.393 263.016L62.5511 94.8278C58.8246 92.6555 53.1707 92.3872 49.9179 94.24Z" fill="url(#paint7_linear_120_132)"/>
</g>
<mask id="mask4_120_132" style="mask-type:alpha" maskUnits="userSpaceOnUse" x="29" y="3" width="344" height="201">
<path d="M32.8154 4.98994L31.9382 5.48829C28.6919 7.33475 29.076 10.5996 32.809 12.7719L356.315 201.597C360.042 203.769 365.702 204.031 368.949 202.185L369.826 201.686C373.072 199.84 372.688 196.575 368.955 194.403L45.4486 5.57774C41.722 3.40543 36.0681 3.14347 32.8154 4.98994Z" fill="url(#paint8_linear_120_132)"/>
</mask>
<g mask="url(#mask4_120_132)">
<path opacity="0.66" d="M32.8154 4.98994L31.9382 5.48829C28.6919 7.33475 29.076 10.5996 32.809 12.7719L356.315 201.597C360.042 203.769 365.702 204.031 368.949 202.185L369.826 201.686C373.072 199.84 372.688 196.575 368.955 194.403L45.4486 5.57774C41.722 3.40543 36.0681 3.14347 32.8154 4.98994Z" fill="url(#paint9_linear_120_132)"/>
</g>
<mask id="mask5_120_132" style="mask-type:alpha" maskUnits="userSpaceOnUse" x="102" y="20" width="239" height="139">
<path d="M105.298 21.3078L104.42 21.8062C101.174 23.6527 101.558 26.9175 105.291 29.0898L324.339 156.803C328.065 158.975 333.726 159.237 336.972 157.39L337.849 156.892C341.095 155.046 340.711 151.781 336.978 149.608L117.931 21.8956C114.204 19.7233 108.55 19.4614 105.298 21.3078Z" fill="url(#paint10_linear_120_132)"/>
</mask>
<g mask="url(#mask5_120_132)">
<path opacity="0.66" d="M105.298 21.3078L104.42 21.8062C101.174 23.6527 101.558 26.9175 105.291 29.0898L324.339 156.803C328.065 158.975 333.726 159.237 336.972 157.39L337.849 156.892C341.095 155.046 340.711 151.781 336.978 149.608L117.931 21.8956C114.204 19.7233 108.55 19.4614 105.298 21.3078Z" fill="url(#paint11_linear_120_132)"/>
</g>
<mask id="mask6_120_132" style="mask-type:alpha" maskUnits="userSpaceOnUse" x="105" y="99" width="204" height="120">
<path d="M108.525 101.096L107.648 101.594C104.401 103.44 104.785 106.705 108.518 108.878L292.663 216.241C296.389 218.413 302.05 218.675 305.296 216.829L306.173 216.33C309.42 214.484 309.035 211.219 305.302 209.047L121.158 101.683C117.431 99.511 111.771 99.2491 108.525 101.096Z" fill="url(#paint12_linear_120_132)"/>
</mask>
<g mask="url(#mask6_120_132)">
<path opacity="0.66" d="M108.525 101.096L107.648 101.594C104.401 103.44 104.785 106.705 108.518 108.878L292.663 216.241C296.389 218.413 302.05 218.675 305.296 216.829L306.173 216.33C309.42 214.484 309.035 211.219 305.302 209.047L121.158 101.683C117.431 99.511 111.771 99.2491 108.525 101.096Z" fill="url(#paint13_linear_120_132)"/>
</g>
<mask id="mask7_120_132" style="mask-type:alpha" maskUnits="userSpaceOnUse" x="143" y="94" width="89" height="52">
<path d="M146.764 96.0801L145.886 96.5784C142.64 98.4249 143.024 101.69 146.757 103.862L215.763 144.095C219.489 146.267 225.149 146.529 228.396 144.682L229.273 144.184C232.519 142.338 232.135 139.073 228.402 136.9L159.397 96.6679C155.67 94.4956 150.01 94.2272 146.764 96.0801Z" fill="url(#paint14_linear_120_132)"/>
</mask>
<g mask="url(#mask7_120_132)">
<path opacity="0.66" d="M146.764 96.0801L145.886 96.5784C142.64 98.4249 143.024 101.69 146.757 103.862L215.763 144.095C219.489 146.267 225.149 146.529 228.396 144.682L229.273 144.184C232.519 142.338 232.135 139.073 228.402 136.9L159.397 96.6679C155.67 94.4956 150.01 94.2272 146.764 96.0801Z" fill="url(#paint15_linear_120_132)"/>
</g>
</g>
<path d="M278.858 250.014C277.309 250.014 275.759 249.618 274.376 248.819L179.406 194.102C178.721 193.706 178.318 193.004 178.318 192.218C178.318 191.432 178.728 190.729 179.406 190.333L238.417 156.336C238.692 156.176 239.031 156.176 239.307 156.336L338.31 213.372C338.995 213.768 339.399 214.471 339.399 215.257C339.399 216.043 338.989 216.746 338.31 217.142L283.334 248.813C281.957 249.611 280.408 250.014 278.858 250.014ZM238.865 158.138L180.303 191.879C180.13 191.981 180.104 192.135 180.104 192.218C180.104 192.301 180.13 192.46 180.303 192.563L275.272 247.273C277.488 248.551 280.241 248.551 282.45 247.273L337.427 215.602C337.599 215.5 337.625 215.346 337.625 215.263C337.625 215.18 337.599 215.021 337.427 214.918L238.865 158.138Z" fill="url(#paint16_linear_120_132)"/>
<path d="M238.737 133.444L251.965 55.1192L250.902 54.672L252.503 53.7583V53.7647C252.811 53.5603 253.252 53.573 253.733 53.8478L359.472 114.762C360.343 115.26 360.996 116.545 360.842 117.439L347.505 196.39C347.434 196.799 347.23 197.073 346.948 197.195L345.385 198.096L345.117 196.639L345.206 196.665L240.113 136.121C239.243 135.623 238.589 134.338 238.737 133.444Z" fill="url(#paint17_linear_120_132)"/>
<path d="M358.883 116.909L360.625 116.142C360.817 116.589 360.913 117.056 360.849 117.445L347.511 196.396C347.441 196.805 347.236 197.08 346.954 197.201L345.392 198.102L345.123 196.645L345.213 196.671L339.892 193.604L358.883 116.909Z" fill="url(#paint18_linear_120_132)"/>
<path d="M238.455 137.073L344.195 197.987C345.014 198.46 345.712 198.185 345.853 197.342L359.19 118.391C359.344 117.497 358.685 116.212 357.82 115.714L252.074 54.7998C251.255 54.327 250.557 54.6017 250.416 55.4451L237.078 134.396C236.931 135.29 237.584 136.568 238.455 137.073Z" fill="#24126A"/>
<g opacity="0.51">
<path d="M253.457 59.8344L355.381 118.557L342.741 192.908L240.888 134.23L253.457 59.8344Z" fill="#453C9E"/>
</g>
<path d="M171.985 174.449L177.754 177.459L235.618 144.12C236.585 143.564 238.276 143.635 239.396 144.273L339.194 201.769C340.148 201.239 344.502 199.15 344.502 199.15L342.389 204.645L342.382 204.638C342.293 204.881 342.107 205.111 341.793 205.29L280.849 240.398C279.883 240.954 278.192 240.884 277.072 240.245L174.943 181.407C174.482 181.145 174.201 180.819 174.085 180.5L174.079 180.506L171.985 174.449Z" fill="url(#paint19_linear_120_132)"/>
<path d="M172.875 175.395L277.539 235.696C278.685 236.354 280.42 236.431 281.413 235.856L343.868 199.872C344.86 199.303 344.739 198.3 343.593 197.642L238.929 137.341C237.783 136.683 236.047 136.606 235.055 137.181L172.6 173.165C171.607 173.734 171.729 174.737 172.875 175.395Z" fill="url(#paint20_linear_120_132)"/>
<path d="M343.874 199.227L281.419 235.21C280.427 235.779 278.692 235.709 277.545 235.051L172.882 174.75C172.414 174.481 172.126 174.149 172.004 173.823C171.806 174.347 172.1 174.948 172.882 175.395L277.545 235.696C278.692 236.354 280.427 236.431 281.419 235.856L343.874 199.872C344.457 199.533 344.649 199.048 344.476 198.568C344.38 198.818 344.188 199.041 343.874 199.227Z" fill="white"/>
<path d="M309.112 222.649V221.506C309.112 221.397 309.048 221.346 308.965 221.397L304.918 223.729C304.835 223.774 304.771 223.901 304.771 224.01V225.154C304.771 225.262 304.835 225.313 304.918 225.262L308.965 222.93C309.048 222.886 309.112 222.758 309.112 222.649Z" fill="#2842A2"/>
<path d="M303.061 226.138V224.994C303.061 224.885 302.997 224.834 302.914 224.885L298.867 227.217C298.784 227.262 298.72 227.39 298.72 227.499V228.642C298.72 228.751 298.784 228.802 298.867 228.751L302.914 226.419C302.991 226.374 303.061 226.246 303.061 226.138Z" fill="#2842A2"/>
<path d="M327.585 196.498L240.606 146.388C240.024 146.056 239.313 146.056 238.73 146.388L207.759 164.271C207.317 164.527 207.317 165.166 207.759 165.428L294.693 215.513C295.269 215.845 295.986 215.845 296.563 215.513L327.579 197.655C328.033 197.399 328.033 196.76 327.585 196.498Z" fill="#ADB1F2"/>
<path d="M327.585 197.655L327.271 197.834L240.613 147.909C240.03 147.577 239.319 147.577 238.737 147.909L208.079 165.607L207.765 165.428C207.323 165.172 207.317 164.533 207.765 164.271L238.737 146.388C239.319 146.056 240.03 146.056 240.613 146.388L327.591 196.498C328.033 196.76 328.033 197.399 327.585 197.655Z" fill="#9198DB"/>
<path d="M236.4 150.925L311.949 194.447L315.311 192.512L239.761 148.989L236.4 150.925Z" fill="#24126A"/>
<path d="M228.165 155.665L299.028 196.492L302.389 194.556L231.521 153.729L228.165 155.665Z" fill="#24126A"/>
<path d="M222.8 158.758L306.237 206.823L309.593 204.887L226.161 156.822L222.8 158.758Z" fill="#24126A"/>
<path d="M217.434 161.85L300.872 209.916L304.233 207.98L220.796 159.914L217.434 161.85Z" fill="#24126A"/>
<path d="M212.075 164.936L295.506 213.008L298.868 211.072L215.43 163L212.075 164.936Z" fill="#24126A"/>
<path d="M316.514 197.08L319.876 199.016L323.237 197.08L319.876 195.144L316.514 197.08Z" fill="#24126A"/>
<path d="M304.669 199.744L311.642 203.756L314.997 201.821L308.024 197.808L304.669 199.744Z" fill="#24126A"/>
<path d="M237.264 208.625L213.81 195.112C212.894 194.582 212.894 193.726 213.81 193.202L229.849 183.963C230.765 183.433 232.25 183.433 233.166 183.963L256.62 197.476C257.536 198.006 257.536 198.862 256.62 199.386L240.581 208.625C239.665 209.155 238.18 209.155 237.264 208.625Z" fill="url(#paint21_linear_120_132)"/>
<path d="M256.62 198.255L233.166 184.742C232.251 184.212 230.765 184.212 229.849 184.742L213.81 193.981C213.528 194.147 213.342 194.339 213.234 194.543C212.99 194.083 213.176 193.559 213.81 193.195L229.849 183.956C230.765 183.426 232.251 183.426 233.166 183.956L256.62 197.47C257.254 197.834 257.44 198.358 257.197 198.818C257.088 198.62 256.902 198.422 256.62 198.255Z" fill="#9198DB"/>
<g opacity="0.11">
<path d="M238.826 137.22L343.49 197.521C344.636 198.179 346.372 198.255 347.364 197.68L409.819 161.697C410.812 161.128 410.69 160.125 409.544 159.467L304.88 99.166C303.734 98.508 301.999 98.4313 301.006 99.0063L238.551 134.99C237.552 135.559 237.68 136.562 238.826 137.22Z" fill="url(#paint22_linear_120_132)"/>
<path d="M343.804 148.03L320.35 134.517C319.434 133.987 319.434 133.131 320.35 132.607L336.389 123.368C337.305 122.838 338.79 122.838 339.706 123.368L363.16 136.881C364.076 137.412 364.076 138.268 363.16 138.792L347.121 148.03C346.205 148.561 344.719 148.561 343.804 148.03Z" fill="url(#paint23_linear_120_132)"/>
<path d="M363.16 137.661L339.706 124.148C338.79 123.617 337.305 123.617 336.389 124.148L320.35 133.386C320.068 133.552 319.882 133.744 319.773 133.949C319.53 133.489 319.716 132.965 320.35 132.6L336.389 123.362C337.305 122.831 338.79 122.831 339.706 123.362L363.16 136.875C363.794 137.239 363.98 137.763 363.737 138.223C363.628 138.018 363.442 137.827 363.16 137.661Z" fill="#9198DB"/>
<path d="M373.469 169.147L286.491 119.036C285.908 118.704 285.197 118.704 284.614 119.036L253.643 136.92C253.201 137.175 253.201 137.814 253.643 138.076L340.577 188.161C341.153 188.493 341.87 188.493 342.447 188.161L373.463 170.303C373.911 170.041 373.911 169.402 373.469 169.147Z" fill="#ADB1F2"/>
<path d="M373.469 170.296L373.155 170.475L286.49 120.551C285.908 120.218 285.197 120.218 284.614 120.551L253.957 138.248L253.643 138.07C253.201 137.814 253.195 137.175 253.643 136.913L284.614 119.03C285.197 118.698 285.908 118.698 286.49 119.03L373.469 169.14C373.911 169.402 373.911 170.041 373.469 170.296Z" fill="#9198DB"/>
<path d="M261.749 135.699L337.523 179.35L334.52 181.081L258.746 137.431L261.749 135.699Z" fill="#24126A"/>
<path d="M269.734 131.099L341.755 172.59L338.752 174.322L266.731 132.83L269.734 131.099Z" fill="#24126A"/>
<path d="M347.134 175.689L353.857 179.561L350.854 181.292L344.13 177.42L347.134 175.689Z" fill="#24126A"/>
<path d="M341.191 181.465L345.872 184.161L342.875 185.892L338.188 183.196L341.191 181.465Z" fill="#24126A"/>
<path d="M274.735 128.218L358.864 176.679L355.861 178.411L271.738 129.949L274.735 128.218Z" fill="#24126A"/>
<path d="M279.742 125.336L363.865 173.798L360.862 175.529L276.739 127.067L279.742 125.336Z" fill="#24126A"/>
<path d="M284.743 122.455L368.865 170.916L365.862 172.648L281.74 124.186L284.743 122.455Z" fill="#24126A"/>
<path d="M272.628 124.691L326.247 155.582C327.713 156.426 328.898 155.531 328.898 153.582V123.592C328.898 121.643 327.707 119.375 326.247 118.532L272.628 87.64C271.162 86.7966 269.977 87.6911 269.977 89.6398V119.631C269.971 121.579 271.162 123.847 272.628 124.691Z" fill="url(#paint24_linear_120_132)"/>
</g>
<path opacity="0.6" d="M270.137 132.46L323.756 163.351C325.222 164.195 326.407 163.3 326.407 161.352V131.361C326.407 129.412 325.216 127.144 323.756 126.301L270.137 95.4092C268.671 94.5659 267.486 95.4603 267.486 97.409V127.4C267.486 129.355 268.671 131.617 270.137 132.46Z" fill="#24126A"/>
<path d="M263.401 89.8698L264.938 88.7773C265.418 88.4131 266.084 88.3939 266.82 88.822L320.439 119.714C321.906 120.557 323.09 122.825 323.09 124.774V154.764C323.09 155.787 322.764 156.515 322.245 156.86H322.251L320.657 157.997L320.567 156.835C320.523 156.815 320.484 156.796 320.439 156.771L266.82 125.866C265.354 125.023 264.17 122.755 264.17 120.806V90.8154C264.17 90.5279 264.195 90.266 264.246 90.0296L263.401 89.8698Z" fill="url(#paint25_linear_120_132)"/>
<path d="M322.956 123.566L308.805 131.719L305.239 129.668L321.31 120.41C322.085 121.209 322.693 122.384 322.956 123.566Z" fill="url(#paint26_linear_120_132)"/>
<path d="M265.22 127.01L318.839 157.902C320.305 158.745 321.489 157.85 321.489 155.902V125.911C321.489 123.962 320.299 121.694 318.839 120.851L265.22 89.9593C263.753 89.1159 262.569 90.0104 262.569 91.9591V121.95C262.562 123.898 263.753 126.16 265.22 127.01Z" fill="url(#paint27_linear_120_132)"/>
<path d="M270.182 108.124L313.947 133.31C314.286 133.501 314.574 133.61 314.773 133.303C314.805 133.259 314.786 133.188 314.786 133.124V126.499C314.786 125.981 314.472 125.387 314.088 125.164L269.984 99.7539C269.952 99.7347 269.92 99.6963 269.881 99.7027C269.548 99.7538 269.535 100.061 269.535 100.527L269.427 106.878C269.427 107.408 269.791 107.9 270.182 108.124Z" fill="#5761D7"/>
<path d="M270.092 122.525L313.927 147.736C314.267 147.928 314.702 148.133 314.766 147.749C314.779 147.692 314.779 147.634 314.779 147.564V140.945C314.779 140.427 314.465 139.833 314.081 139.609L269.977 114.2C269.945 114.181 269.907 114.161 269.875 114.149C269.535 114.021 269.446 114.455 269.446 114.922L269.42 121.196C269.426 121.713 269.702 122.301 270.092 122.525Z" fill="#5761D7"/>
<path d="M269.875 99.7155C269.868 99.773 269.862 99.8305 269.862 99.8944V106.52C269.862 107.037 270.176 107.632 270.56 107.855L314.664 133.265C314.696 133.284 314.734 133.297 314.766 133.31C314.702 133.693 314.42 133.853 314.081 133.655L269.977 108.245C269.593 108.021 269.279 107.427 269.279 106.91V100.284C269.279 99.8178 269.535 99.5877 269.875 99.7155Z" fill="white"/>
<path d="M269.875 114.155C269.868 114.213 269.862 114.27 269.862 114.334V120.959C269.862 121.477 270.176 122.071 270.56 122.295L314.664 147.704C314.696 147.724 314.734 147.736 314.766 147.749C314.702 148.133 314.42 148.292 314.081 148.094L269.977 122.685C269.593 122.461 269.279 121.867 269.279 121.349V114.724C269.279 114.264 269.535 114.027 269.875 114.155Z" fill="white"/>
<path d="M302.172 123.438L301.634 124.454L300.609 123.17L301.39 122.371L300.225 121.183L300.609 120.199L301.659 121.49L301.519 119.95L302.806 120.691L302.671 122.065L303.728 122.001L304.118 123.419L302.966 123.272L303.74 124.978L302.735 125.087L302.172 123.438Z" fill="white"/>
<path d="M297.107 120.519L296.569 121.534L295.544 120.25L296.326 119.452L295.16 118.263L295.544 117.279L296.595 118.57L296.454 117.03L297.741 117.771L297.606 119.145L298.663 119.081L299.053 120.499L297.901 120.352L298.676 122.058L297.67 122.167L297.107 120.519Z" fill="white"/>
<path d="M292.036 117.599L291.498 118.615L290.473 117.33L291.254 116.532L290.089 115.343L290.473 114.359L291.523 115.65L291.383 114.11L292.67 114.851L292.535 116.225L293.592 116.161L293.982 117.58L292.83 117.433L293.604 119.139L292.599 119.247L292.036 117.599Z" fill="white"/>
<path d="M286.964 114.679L286.427 115.695L285.402 114.411L286.183 113.612L285.018 112.424L285.402 111.44L286.452 112.73L286.311 111.19L287.598 111.932L287.464 113.305L288.52 113.241L288.911 114.66L287.758 114.513L288.533 116.219L287.528 116.327L286.964 114.679Z" fill="white"/>
<path d="M281.9 111.759L281.362 112.775L280.337 111.491L281.118 110.692L279.953 109.504L280.337 108.52L281.387 109.81L281.247 108.271L282.534 109.012L282.399 110.385L283.456 110.322L283.846 111.74L282.694 111.593L283.468 113.299L282.463 113.407L281.9 111.759Z" fill="white"/>
<path d="M302.172 137.878L301.634 138.894L300.609 137.61L301.39 136.811L300.225 135.623L300.609 134.639L301.659 135.929L301.519 134.389L302.806 135.131L302.671 136.504L303.728 136.44L304.118 137.859L302.966 137.712L303.74 139.418L302.735 139.526L302.172 137.878Z" fill="white"/>
<path d="M297.107 134.958L296.569 135.974L295.544 134.69L296.326 133.891L295.16 132.703L295.544 131.719L296.595 133.009L296.454 131.47L297.741 132.211L297.606 133.584L298.663 133.521L299.053 134.939L297.901 134.792L298.676 136.498L297.67 136.606L297.107 134.958Z" fill="white"/>
<path d="M292.036 132.038L291.498 133.054L290.473 131.77L291.254 130.971L290.089 129.783L290.473 128.799L291.523 130.09L291.383 128.55L292.67 129.291L292.535 130.665L293.592 130.601L293.982 132.019L292.83 131.872L293.604 133.578L292.599 133.687L292.036 132.038Z" fill="white"/>
<path d="M286.964 129.118L286.427 130.134L285.402 128.85L286.183 128.051L285.018 126.863L285.402 125.879L286.452 127.17L286.311 125.63L287.598 126.371L287.464 127.745L288.52 127.681L288.911 129.099L287.758 128.952L288.533 130.658L287.528 130.767L286.964 129.118Z" fill="white"/>
<path d="M281.9 126.199L281.362 127.214L280.337 125.93L281.118 125.132L279.953 123.943L280.337 122.959L281.387 124.25L281.247 122.71L282.534 123.451L282.399 124.825L283.456 124.761L283.846 126.179L282.694 126.032L283.468 127.738L282.463 127.847L281.9 126.199Z" fill="white"/>
</g>
<defs>
<linearGradient id="paint0_linear_120_132" x1="210.925" y1="270.545" x2="120.216" y2="111.189" gradientUnits="userSpaceOnUse">
<stop/>
<stop offset="0.0576" stop-color="#292929"/>
<stop offset="0.1455" stop-color="#626262"/>
<stop offset="0.2308" stop-color="#919191"/>
<stop offset="0.3114" stop-color="#B6B6B6"/>
<stop offset="0.3863" stop-color="#D0D0D0"/>
<stop offset="0.4531" stop-color="#E0E0E0"/>
<stop offset="0.5054" stop-color="#E6E6E6"/>
<stop offset="0.5514" stop-color="#DEDEDE"/>
<stop offset="0.6211" stop-color="#C9C9C9"/>
<stop offset="0.7058" stop-color="#A7A7A7"/>
<stop offset="0.8025" stop-color="#777777"/>
<stop offset="0.9076" stop-color="#3B3B3B"/>
<stop offset="1"/>
</linearGradient>
<linearGradient id="paint1_linear_120_132" x1="210.925" y1="270.545" x2="120.216" y2="111.189" gradientUnits="userSpaceOnUse">
<stop stop-color="#5761D7"/>
<stop offset="0.00965709" stop-color="#5665D7"/>
<stop offset="0.1262" stop-color="#4F94DA"/>
<stop offset="0.2375" stop-color="#49B8DD"/>
<stop offset="0.3408" stop-color="#45D3DF"/>
<stop offset="0.4332" stop-color="#43E2E0"/>
<stop offset="0.5054" stop-color="#42E8E0"/>
<stop offset="0.5719" stop-color="#43E0DF"/>
<stop offset="0.6727" stop-color="#46CCDE"/>
<stop offset="0.7952" stop-color="#4CA9DC"/>
<stop offset="0.9335" stop-color="#537AD9"/>
<stop offset="1" stop-color="#5761D7"/>
</linearGradient>
<linearGradient id="paint2_linear_120_132" x1="190.783" y1="231.493" x2="143.512" y2="148.447" gradientUnits="userSpaceOnUse">
<stop/>
<stop offset="0.0576" stop-color="#292929"/>
<stop offset="0.1455" stop-color="#626262"/>
<stop offset="0.2308" stop-color="#919191"/>
<stop offset="0.3114" stop-color="#B6B6B6"/>
<stop offset="0.3863" stop-color="#D0D0D0"/>
<stop offset="0.4531" stop-color="#E0E0E0"/>
<stop offset="0.5054" stop-color="#E6E6E6"/>
<stop offset="0.5514" stop-color="#DEDEDE"/>
<stop offset="0.6211" stop-color="#C9C9C9"/>
<stop offset="0.7058" stop-color="#A7A7A7"/>
<stop offset="0.8025" stop-color="#777777"/>
<stop offset="0.9076" stop-color="#3B3B3B"/>
<stop offset="1"/>
</linearGradient>
<linearGradient id="paint3_linear_120_132" x1="190.783" y1="231.493" x2="143.512" y2="148.447" gradientUnits="userSpaceOnUse">
<stop stop-color="#5761D7"/>
<stop offset="0.00965709" stop-color="#5665D7"/>
<stop offset="0.1262" stop-color="#4F94DA"/>
<stop offset="0.2375" stop-color="#49B8DD"/>
<stop offset="0.3408" stop-color="#45D3DF"/>
<stop offset="0.4332" stop-color="#43E2E0"/>
<stop offset="0.5054" stop-color="#42E8E0"/>
<stop offset="0.5719" stop-color="#43E0DF"/>
<stop offset="0.6727" stop-color="#46CCDE"/>
<stop offset="0.7952" stop-color="#4CA9DC"/>
<stop offset="0.9335" stop-color="#537AD9"/>
<stop offset="1" stop-color="#5761D7"/>
</linearGradient>
<linearGradient id="paint4_linear_120_132" x1="306.442" y1="271.567" x2="223.356" y2="125.602" gradientUnits="userSpaceOnUse">
<stop/>
<stop offset="0.0576" stop-color="#292929"/>
<stop offset="0.1455" stop-color="#626262"/>
<stop offset="0.2308" stop-color="#919191"/>
<stop offset="0.3114" stop-color="#B6B6B6"/>
<stop offset="0.3863" stop-color="#D0D0D0"/>
<stop offset="0.4531" stop-color="#E0E0E0"/>
<stop offset="0.5054" stop-color="#E6E6E6"/>
<stop offset="0.5514" stop-color="#DEDEDE"/>
<stop offset="0.6211" stop-color="#C9C9C9"/>
<stop offset="0.7058" stop-color="#A7A7A7"/>
<stop offset="0.8025" stop-color="#777777"/>
<stop offset="0.9076" stop-color="#3B3B3B"/>
<stop offset="1"/>
</linearGradient>
<linearGradient id="paint5_linear_120_132" x1="306.442" y1="271.567" x2="223.356" y2="125.602" gradientUnits="userSpaceOnUse">
<stop stop-color="#5761D7"/>
<stop offset="0.00965709" stop-color="#5665D7"/>
<stop offset="0.1262" stop-color="#4F94DA"/>
<stop offset="0.2375" stop-color="#49B8DD"/>
<stop offset="0.3408" stop-color="#45D3DF"/>
<stop offset="0.4332" stop-color="#43E2E0"/>
<stop offset="0.5054" stop-color="#42E8E0"/>
<stop offset="0.5719" stop-color="#43E0DF"/>
<stop offset="0.6727" stop-color="#46CCDE"/>
<stop offset="0.7952" stop-color="#4CA9DC"/>
<stop offset="0.9335" stop-color="#537AD9"/>
<stop offset="1" stop-color="#5761D7"/>
</linearGradient>
<linearGradient id="paint6_linear_120_132" x1="350.989" y1="270.454" x2="201.552" y2="7.92601" gradientUnits="userSpaceOnUse">
<stop/>
<stop offset="0.0576" stop-color="#292929"/>
<stop offset="0.1455" stop-color="#626262"/>
<stop offset="0.2308" stop-color="#919191"/>
<stop offset="0.3114" stop-color="#B6B6B6"/>
<stop offset="0.3863" stop-color="#D0D0D0"/>
<stop offset="0.4531" stop-color="#E0E0E0"/>
<stop offset="0.5054" stop-color="#E6E6E6"/>
<stop offset="0.5514" stop-color="#DEDEDE"/>
<stop offset="0.6211" stop-color="#C9C9C9"/>
<stop offset="0.7058" stop-color="#A7A7A7"/>
<stop offset="0.8025" stop-color="#777777"/>
<stop offset="0.9076" stop-color="#3B3B3B"/>
<stop offset="1"/>
</linearGradient>
<linearGradient id="paint7_linear_120_132" x1="350.989" y1="270.454" x2="201.552" y2="7.92601" gradientUnits="userSpaceOnUse">
<stop stop-color="#5761D7"/>
<stop offset="0.00965709" stop-color="#5665D7"/>
<stop offset="0.1262" stop-color="#4F94DA"/>
<stop offset="0.2375" stop-color="#49B8DD"/>
<stop offset="0.3408" stop-color="#45D3DF"/>
<stop offset="0.4332" stop-color="#43E2E0"/>
<stop offset="0.5054" stop-color="#42E8E0"/>
<stop offset="0.5719" stop-color="#43E0DF"/>
<stop offset="0.6727" stop-color="#46CCDE"/>
<stop offset="0.7952" stop-color="#4CA9DC"/>
<stop offset="0.9335" stop-color="#537AD9"/>
<stop offset="1" stop-color="#5761D7"/>
</linearGradient>
<linearGradient id="paint8_linear_120_132" x1="369.485" y1="201.881" x2="202.448" y2="-91.5679" gradientUnits="userSpaceOnUse">
<stop/>
<stop offset="0.0576" stop-color="#292929"/>
<stop offset="0.1455" stop-color="#626262"/>
<stop offset="0.2308" stop-color="#919191"/>
<stop offset="0.3114" stop-color="#B6B6B6"/>
<stop offset="0.3863" stop-color="#D0D0D0"/>
<stop offset="0.4531" stop-color="#E0E0E0"/>
<stop offset="0.5054" stop-color="#E6E6E6"/>
<stop offset="0.5514" stop-color="#DEDEDE"/>
<stop offset="0.6211" stop-color="#C9C9C9"/>
<stop offset="0.7058" stop-color="#A7A7A7"/>
<stop offset="0.8025" stop-color="#777777"/>
<stop offset="0.9076" stop-color="#3B3B3B"/>
<stop offset="1"/>
</linearGradient>
<linearGradient id="paint9_linear_120_132" x1="369.485" y1="201.881" x2="202.448" y2="-91.5679" gradientUnits="userSpaceOnUse">
<stop stop-color="#5761D7"/>
<stop offset="0.00965709" stop-color="#5665D7"/>
<stop offset="0.1262" stop-color="#4F94DA"/>
<stop offset="0.2375" stop-color="#49B8DD"/>
<stop offset="0.3408" stop-color="#45D3DF"/>
<stop offset="0.4332" stop-color="#43E2E0"/>
<stop offset="0.5054" stop-color="#42E8E0"/>
<stop offset="0.5719" stop-color="#43E0DF"/>
<stop offset="0.6727" stop-color="#46CCDE"/>
<stop offset="0.7952" stop-color="#4CA9DC"/>
<stop offset="0.9335" stop-color="#537AD9"/>
<stop offset="1" stop-color="#5761D7"/>
</linearGradient>
<linearGradient id="paint10_linear_120_132" x1="337.416" y1="157.14" x2="222.216" y2="-45.241" gradientUnits="userSpaceOnUse">
<stop/>
<stop offset="0.0576" stop-color="#292929"/>
<stop offset="0.1455" stop-color="#626262"/>
<stop offset="0.2308" stop-color="#919191"/>
<stop offset="0.3114" stop-color="#B6B6B6"/>
<stop offset="0.3863" stop-color="#D0D0D0"/>
<stop offset="0.4531" stop-color="#E0E0E0"/>
<stop offset="0.5054" stop-color="#E6E6E6"/>
<stop offset="0.5514" stop-color="#DEDEDE"/>
<stop offset="0.6211" stop-color="#C9C9C9"/>
<stop offset="0.7058" stop-color="#A7A7A7"/>
<stop offset="0.8025" stop-color="#777777"/>
<stop offset="0.9076" stop-color="#3B3B3B"/>
<stop offset="1"/>
</linearGradient>
<linearGradient id="paint11_linear_120_132" x1="337.416" y1="157.14" x2="222.216" y2="-45.241" gradientUnits="userSpaceOnUse">
<stop stop-color="#5761D7"/>
<stop offset="0.00965709" stop-color="#5665D7"/>
<stop offset="0.1262" stop-color="#4F94DA"/>
<stop offset="0.2375" stop-color="#49B8DD"/>
<stop offset="0.3408" stop-color="#45D3DF"/>
<stop offset="0.4332" stop-color="#43E2E0"/>
<stop offset="0.5054" stop-color="#42E8E0"/>
<stop offset="0.5719" stop-color="#43E0DF"/>
<stop offset="0.6727" stop-color="#46CCDE"/>
<stop offset="0.7952" stop-color="#4CA9DC"/>
<stop offset="0.9335" stop-color="#537AD9"/>
<stop offset="1" stop-color="#5761D7"/>
</linearGradient>
<linearGradient id="paint12_linear_120_132" x1="305.736" y1="216.577" x2="207.827" y2="44.5712" gradientUnits="userSpaceOnUse">
<stop/>
<stop offset="0.0576" stop-color="#292929"/>
<stop offset="0.1455" stop-color="#626262"/>
<stop offset="0.2308" stop-color="#919191"/>
<stop offset="0.3114" stop-color="#B6B6B6"/>
<stop offset="0.3863" stop-color="#D0D0D0"/>
<stop offset="0.4531" stop-color="#E0E0E0"/>
<stop offset="0.5054" stop-color="#E6E6E6"/>
<stop offset="0.5514" stop-color="#DEDEDE"/>
<stop offset="0.6211" stop-color="#C9C9C9"/>
<stop offset="0.7058" stop-color="#A7A7A7"/>
<stop offset="0.8025" stop-color="#777777"/>
<stop offset="0.9076" stop-color="#3B3B3B"/>
<stop offset="1"/>
</linearGradient>
<linearGradient id="paint13_linear_120_132" x1="305.736" y1="216.577" x2="207.827" y2="44.5712" gradientUnits="userSpaceOnUse">
<stop stop-color="#5761D7"/>
<stop offset="0.00965709" stop-color="#5665D7"/>
<stop offset="0.1262" stop-color="#4F94DA"/>
<stop offset="0.2375" stop-color="#49B8DD"/>
<stop offset="0.3408" stop-color="#45D3DF"/>
<stop offset="0.4332" stop-color="#43E2E0"/>
<stop offset="0.5054" stop-color="#42E8E0"/>
<stop offset="0.5719" stop-color="#43E0DF"/>
<stop offset="0.6727" stop-color="#46CCDE"/>
<stop offset="0.7952" stop-color="#4CA9DC"/>
<stop offset="0.9335" stop-color="#537AD9"/>
<stop offset="1" stop-color="#5761D7"/>
</linearGradient>
<linearGradient id="paint14_linear_120_132" x1="228.833" y1="144.432" x2="187.961" y2="72.6273" gradientUnits="userSpaceOnUse">
<stop/>
<stop offset="0.0576" stop-color="#292929"/>
<stop offset="0.1455" stop-color="#626262"/>
<stop offset="0.2308" stop-color="#919191"/>
<stop offset="0.3114" stop-color="#B6B6B6"/>
<stop offset="0.3863" stop-color="#D0D0D0"/>
<stop offset="0.4531" stop-color="#E0E0E0"/>
<stop offset="0.5054" stop-color="#E6E6E6"/>
<stop offset="0.5514" stop-color="#DEDEDE"/>
<stop offset="0.6211" stop-color="#C9C9C9"/>
<stop offset="0.7058" stop-color="#A7A7A7"/>
<stop offset="0.8025" stop-color="#777777"/>
<stop offset="0.9076" stop-color="#3B3B3B"/>
<stop offset="1"/>
</linearGradient>
<linearGradient id="paint15_linear_120_132" x1="228.833" y1="144.432" x2="187.961" y2="72.6273" gradientUnits="userSpaceOnUse">
<stop stop-color="#5761D7"/>
<stop offset="0.00965709" stop-color="#5665D7"/>
<stop offset="0.1262" stop-color="#4F94DA"/>
<stop offset="0.2375" stop-color="#49B8DD"/>
<stop offset="0.3408" stop-color="#45D3DF"/>
<stop offset="0.4332" stop-color="#43E2E0"/>
<stop offset="0.5054" stop-color="#42E8E0"/>
<stop offset="0.5719" stop-color="#43E0DF"/>
<stop offset="0.6727" stop-color="#46CCDE"/>
<stop offset="0.7952" stop-color="#4CA9DC"/>
<stop offset="0.9335" stop-color="#537AD9"/>
<stop offset="1" stop-color="#5761D7"/>
</linearGradient>
<linearGradient id="paint16_linear_120_132" x1="339.404" y1="203.117" x2="178.316" y2="203.117" gradientUnits="userSpaceOnUse">
<stop stop-color="#42E8E0"/>
<stop offset="0.1507" stop-color="#43E3E0"/>
<stop offset="0.3285" stop-color="#45D5DF"/>
<stop offset="0.5199" stop-color="#49BDDD"/>
<stop offset="0.7209" stop-color="#4E9CDB"/>
<stop offset="0.9274" stop-color="#5472D8"/>
<stop offset="1" stop-color="#5761D7"/>
</linearGradient>
<linearGradient id="paint17_linear_120_132" x1="360.87" y1="125.861" x2="238.718" y2="125.861" gradientUnits="userSpaceOnUse">
<stop stop-color="#C0BFF6"/>
<stop offset="0.2938" stop-color="#C5C4F7"/>
<stop offset="0.6399" stop-color="#D3D2F9"/>
<stop offset="1" stop-color="#E9E9FD"/>
</linearGradient>
<linearGradient id="paint18_linear_120_132" x1="360.87" y1="157.12" x2="339.895" y2="157.12" gradientUnits="userSpaceOnUse">
<stop stop-color="#5761D7"/>
<stop offset="0.1779" stop-color="#5C66D9"/>
<stop offset="0.3876" stop-color="#6A73DF"/>
<stop offset="0.6134" stop-color="#8289E8"/>
<stop offset="0.849" stop-color="#A3A7F5"/>
<stop offset="1" stop-color="#BCBEFF"/>
</linearGradient>
<linearGradient id="paint19_linear_120_132" x1="344.505" y1="192.258" x2="171.985" y2="192.258" gradientUnits="userSpaceOnUse">
<stop stop-color="#5761D7"/>
<stop offset="0.1779" stop-color="#5C66D9"/>
<stop offset="0.3876" stop-color="#6A73DF"/>
<stop offset="0.6134" stop-color="#8289E8"/>
<stop offset="0.849" stop-color="#A3A7F5"/>
<stop offset="1" stop-color="#BCBEFF"/>
</linearGradient>
<linearGradient id="paint20_linear_120_132" x1="286.538" y1="186.518" x2="113.926" y2="186.518" gradientUnits="userSpaceOnUse">
<stop stop-color="#C0BFF6"/>
<stop offset="0.2938" stop-color="#C5C4F7"/>
<stop offset="0.6399" stop-color="#D3D2F9"/>
<stop offset="1" stop-color="#E9E9FD"/>
</linearGradient>
<linearGradient id="paint21_linear_120_132" x1="257.306" y1="196.296" x2="213.122" y2="196.296" gradientUnits="userSpaceOnUse">
<stop stop-color="#C0BFF6"/>
<stop offset="0.2938" stop-color="#C5C4F7"/>
<stop offset="0.6399" stop-color="#D3D2F9"/>
<stop offset="1" stop-color="#E9E9FD"/>
</linearGradient>
<linearGradient id="paint22_linear_120_132" x1="352.485" y1="148.342" x2="179.874" y2="148.342" gradientUnits="userSpaceOnUse">
<stop stop-color="#C0BFF6"/>
<stop offset="0.2938" stop-color="#C5C4F7"/>
<stop offset="0.6399" stop-color="#D3D2F9"/>
<stop offset="1" stop-color="#E9E9FD"/>
</linearGradient>
<linearGradient id="paint23_linear_120_132" x1="363.846" y1="135.699" x2="319.662" y2="135.699" gradientUnits="userSpaceOnUse">
<stop stop-color="#C0BFF6"/>
<stop offset="0.2938" stop-color="#C5C4F7"/>
<stop offset="0.6399" stop-color="#D3D2F9"/>
<stop offset="1" stop-color="#E9E9FD"/>
</linearGradient>
<linearGradient id="paint24_linear_120_132" x1="299.437" y1="140.135" x2="315.464" y2="112.317" gradientUnits="userSpaceOnUse">
<stop stop-color="#C0BFF6"/>
<stop offset="0.2938" stop-color="#C5C4F7"/>
<stop offset="0.6399" stop-color="#D3D2F9"/>
<stop offset="1" stop-color="#E9E9FD"/>
</linearGradient>
<linearGradient id="paint25_linear_120_132" x1="315.915" y1="141.446" x2="262.884" y2="96.851" gradientUnits="userSpaceOnUse">
<stop stop-color="#5761D7"/>
<stop offset="0.1779" stop-color="#5C66D9"/>
<stop offset="0.3876" stop-color="#6A73DF"/>
<stop offset="0.6134" stop-color="#8289E8"/>
<stop offset="0.849" stop-color="#A3A7F5"/>
<stop offset="1" stop-color="#BCBEFF"/>
</linearGradient>
<linearGradient id="paint26_linear_120_132" x1="316.989" y1="128.148" x2="311.197" y2="123.277" gradientUnits="userSpaceOnUse">
<stop stop-color="#C0BFF6"/>
<stop offset="0.2938" stop-color="#C5C4F7"/>
<stop offset="0.6399" stop-color="#D3D2F9"/>
<stop offset="1" stop-color="#E9E9FD"/>
</linearGradient>
<linearGradient id="paint27_linear_120_132" x1="292.029" y1="142.453" x2="308.056" y2="114.635" gradientUnits="userSpaceOnUse">
<stop stop-color="#C0BFF6"/>
<stop offset="0.2938" stop-color="#C5C4F7"/>
<stop offset="0.6399" stop-color="#D3D2F9"/>
<stop offset="1" stop-color="#E9E9FD"/>
</linearGradient>
<clipPath id="clip0_120_132">
<rect width="410" height="304" fill="white"/>
</clipPath>
</defs>
</svg>
