<svg width="21" height="20" viewBox="0 0 21 20" fill="none" xmlns="http://www.w3.org/2000/svg">
<path d="M4.94098 6.40071C8.00991 3.35536 12.9856 3.35536 16.0546 6.40071L16.4239 6.76723C16.5774 6.91949 16.5774 7.16637 16.4239 7.31864L15.1605 8.5724C15.0837 8.64854 14.9593 8.64854 14.8826 8.5724L14.3743 8.06804C12.2334 5.94352 8.76218 5.94352 6.62121 8.06804L6.0769 8.60817C6.00017 8.68431 5.87578 8.68431 5.79906 8.60817L4.53558 7.3544C4.38213 7.20214 4.38213 6.95526 4.53558 6.80299L4.94098 6.40071ZM18.6676 8.99364L19.7921 10.1095C19.9455 10.2618 19.9455 10.5086 19.7921 10.6609L14.7216 15.6925C14.5682 15.8447 14.3194 15.8447 14.166 15.6925C14.166 15.6925 14.166 15.6925 14.166 15.6925L10.5673 12.1214C10.5289 12.0834 10.4667 12.0834 10.4283 12.1214H10.4283L6.82973 15.6925C6.67629 15.8447 6.4275 15.8447 6.27405 15.6925C6.27405 15.6925 6.27405 15.6925 6.27405 15.6925L1.20346 10.6608C1.05002 10.5086 1.05002 10.2617 1.20346 10.1094L2.32796 8.99357C2.48141 8.84131 2.7302 8.84131 2.88365 8.99357L6.48239 12.5647C6.52075 12.6027 6.58295 12.6027 6.62131 12.5647C6.62131 12.5647 6.62131 12.5647 6.62131 12.5647L10.2199 8.99357C10.3733 8.8413 10.6221 8.8413 10.7756 8.99356C10.7756 8.99356 10.7756 8.99357 10.7756 8.99357L14.3743 12.5647C14.4127 12.6027 14.4749 12.6027 14.5132 12.5647L18.1119 8.99364C18.2654 8.84137 18.5141 8.84137 18.6676 8.99364Z" fill="white"/>
</svg>
